<svg class="animated" id="freepik_stories-swipe-profiles" xmlns="http://www.w3.org/2000/svg" xmlns:xlink="http://www.w3.org/1999/xlink" viewBox="0 0 500 500" version="1.1" xmlns:svgjs="http://svgjs.com/svgjs"><style>svg#freepik_stories-swipe-profiles:not(.animated) .animable {opacity: 0;}svg#freepik_stories-swipe-profiles.animated #freepik--Floor--inject-3 {animation: 1s 1 forwards cubic-bezier(.36,-0.01,.5,1.38) fadeIn;animation-delay: 0s;}svg#freepik_stories-swipe-profiles.animated #freepik--Shadow--inject-3 {animation: 1s 1 forwards cubic-bezier(.36,-0.01,.5,1.38) slideLeft;animation-delay: 0s;}svg#freepik_stories-swipe-profiles.animated #freepik--Plants--inject-3 {animation: 1s 1 forwards cubic-bezier(.36,-0.01,.5,1.38) slideDown;animation-delay: 0s;}svg#freepik_stories-swipe-profiles.animated #freepik--Device--inject-3 {animation: 1s 1 forwards cubic-bezier(.36,-0.01,.5,1.38) fadeIn;animation-delay: 0s;}svg#freepik_stories-swipe-profiles.animated #freepik--profile-window-3--inject-3 {animation: 1s 1 forwards cubic-bezier(.36,-0.01,.5,1.38) lightSpeedRight;animation-delay: 0s;}svg#freepik_stories-swipe-profiles.animated #freepik--profile-window-2--inject-3 {animation: 1s 1 forwards cubic-bezier(.36,-0.01,.5,1.38) lightSpeedLeft;animation-delay: 0s;}svg#freepik_stories-swipe-profiles.animated #freepik--profile-window-1--inject-3 {animation: 1s 1 forwards cubic-bezier(.36,-0.01,.5,1.38) zoomIn;animation-delay: 0s;}svg#freepik_stories-swipe-profiles.animated #freepik--character--inject-3 {animation: 1s 1 forwards cubic-bezier(.36,-0.01,.5,1.38) fadeIn,1.5s Infinite  linear wind;animation-delay: 0s,1s;}            @keyframes fadeIn {                0% {                    opacity: 0;                }                100% {                    opacity: 1;                }            }                    @keyframes slideLeft {                0% {                    opacity: 0;                    transform: translateX(-30px);                }                100% {                    opacity: 1;                    transform: translateX(0);                }            }                    @keyframes slideDown {                0% {                    opacity: 0;                    transform: translateY(-30px);                }                100% {                    opacity: 1;                    transform: translateY(0);                }            }                    @keyframes lightSpeedRight {              from {                transform: translate3d(50%, 0, 0) skewX(-20deg);                opacity: 0;              }              60% {                transform: skewX(10deg);                opacity: 1;              }              80% {                transform: skewX(-2deg);              }              to {                opacity: 1;                transform: translate3d(0, 0, 0);              }            }                    @keyframes lightSpeedLeft {              from {                transform: translate3d(-50%, 0, 0) skewX(20deg);                opacity: 0;              }              60% {                transform: skewX(-10deg);                opacity: 1;              }              80% {                transform: skewX(2deg);              }              to {                opacity: 1;                transform: translate3d(0, 0, 0);              }            }                    @keyframes zoomIn {                0% {                    opacity: 0;                    transform: scale(0.5);                }                100% {                    opacity: 1;                    transform: scale(1);                }            }                    @keyframes wind {                0% {                    transform: rotate( 0deg );                }                25% {                    transform: rotate( 1deg );                }                75% {                    transform: rotate( -1deg );                }            }        </style><g id="freepik--Floor--inject-3" class="animable" style="transform-origin: 252.238px 320.548px;"><path id="freepik--floor--inject-3" d="M91.24,430.77c88.93,60.87,233.11,60.87,322,0s88.93-159.56,0-220.44-233.1-60.87-322,0S2.31,369.9,91.24,430.77Z" style="fill: rgb(250, 250, 250); transform-origin: 252.238px 320.548px;" class="animable"></path></g><g id="freepik--Shadow--inject-3" class="animable" style="transform-origin: 339.59px 415.76px;"><ellipse id="freepik--shadow--inject-3" cx="339.59" cy="415.76" rx="45.2" ry="28.08" style="fill: rgb(235, 235, 235); transform-origin: 339.59px 415.76px;" class="animable"></ellipse></g><g id="freepik--Plants--inject-3" class="animable" style="transform-origin: 377.405px 384.844px;"><g id="freepik--plants--inject-3" class="animable" style="transform-origin: 377.405px 384.844px;"><path d="M362.71,391.09a38.79,38.79,0,0,1,5.6-19.72c4.78-8.12,11.08-13.56,16.38-11.9,4.94,1.54,3.85,8.24-3.57,15.53-5.2,5.12-10.48,11.62-12.89,19l-4.17,9.56Z" style="fill: rgb(186, 104, 200); transform-origin: 375.207px 381.366px;" id="elb1521nnxknk" class="animable"></path><path d="M362.71,391.09a38.79,38.79,0,0,1,5.6-19.72c4.78-8.12,11.08-13.56,16.38-11.9,4.94,1.54,3.85,8.24-3.57,15.53-5.2,5.12-10.48,11.62-12.89,19l-4.17,9.56Z" style="fill: rgb(186, 104, 200); transform-origin: 375.207px 381.366px;" id="el2ehvv2a24h8" class="animable"></path><g id="el9z2shrye3e"><g style="opacity: 0.1; transform-origin: 375.207px 381.366px;" class="animable"><path d="M362.71,391.09a38.79,38.79,0,0,1,5.6-19.72c4.78-8.12,11.08-13.56,16.38-11.9,4.94,1.54,3.85,8.24-3.57,15.53-5.2,5.12-10.48,11.62-12.89,19l-4.17,9.56Z" id="el4mbrm8n0tsw" class="animable" style="transform-origin: 375.207px 381.366px;"></path></g></g><path d="M363.53,394.46a.32.32,0,0,0,.28-.24c3.18-12.94,11.24-26.56,18.74-31.68a.32.32,0,0,0,.09-.45.33.33,0,0,0-.45-.08c-7.62,5.2-15.79,19-19,32.06a.32.32,0,0,0,.24.38A.21.21,0,0,0,363.53,394.46Z" style="fill: rgb(255, 255, 255); transform-origin: 372.939px 378.208px;" id="eleejw6lm98st" class="animable"></path><path d="M362.66,405.76a19.15,19.15,0,0,0,8.82,4.42c5.65,1.24,8.32-1.34,8.32-1.34s-1.92-5.48-5.07-7.17a31.68,31.68,0,0,1,9.65,4.65s3.48.26,5.18-5c0,0-1.87-3.32-8.69-5.46a22.82,22.82,0,0,1,10.25,1.1c.45.2,2.8-6.55,3.57-9.68s-.5-3.18-2.93-4-10.82-1.72-12.45-.46-2.69,5.87-2.69,5.87a9.24,9.24,0,0,1-.83-5,8.84,8.84,0,0,0-5.26-.19c-2.84.8-2.74,2.17-2.86,4.19a21.49,21.49,0,0,0,.47,6.06s-1.82-1.77-1.52-7.89c0,0-3.94,3-5.61,5.66S359.29,401.43,362.66,405.76Z" style="fill: rgb(186, 104, 200); transform-origin: 377.405px 396.356px;" id="eljz9uqmgvvj" class="animable"></path><path d="M362.64,406.08a.31.31,0,0,0,.3-.16c5.17-9.29,22.94-19.37,29.14-20.2a.31.31,0,0,0,.27-.36.32.32,0,0,0-.36-.28c-6.3.84-24.36,11.09-29.61,20.52a.32.32,0,0,0,.12.44A.25.25,0,0,0,362.64,406.08Z" style="fill: rgb(255, 255, 255); transform-origin: 377.346px 395.579px;" id="eln87idbwxmo" class="animable"></path></g></g><g id="freepik--Device--inject-3" class="animable" style="transform-origin: 221.12px 203.964px;"><g id="freepik--device--inject-3" class="animable" style="transform-origin: 221.12px 203.964px;"><path d="M160.63,373.42l-2.86-1.65a9.26,9.26,0,0,1-4.2-7.27V108.43a9.29,9.29,0,0,1,4.2-7.28L273.21,34.5a9.34,9.34,0,0,1,8.4,0l2.86,1.65a9.29,9.29,0,0,1,4.2,7.28V299.5a9.29,9.29,0,0,1-4.2,7.28L169,373.42A9.28,9.28,0,0,1,160.63,373.42Z" style="fill: rgb(55, 71, 79); transform-origin: 221.12px 203.96px;" id="el62b3b2896e" class="animable"></path><path d="M170.46,113.32l-15.66-9a8.56,8.56,0,0,0-1.23,4.14V364.5a9.26,9.26,0,0,0,4.2,7.27l2.86,1.65a9.28,9.28,0,0,0,8.4,0l1.43-.82Z" style="fill: rgb(38, 50, 56); transform-origin: 162.015px 239.372px;" id="elm0k74g86bw" class="animable"></path><path d="M164.83,114.93V371c0,2.68,1.88,3.76,4.2,2.42l115.44-66.64a9.29,9.29,0,0,0,4.2-7.28V43.43c0-2.68-1.88-3.76-4.2-2.43L169,107.65A9.29,9.29,0,0,0,164.83,114.93Z" style="fill: rgb(69, 90, 100); transform-origin: 226.75px 207.213px;" id="elwzeo51h6cmh" class="animable"></path><path d="M174.06,133l105-60.6c2-1.14,3.6-.21,3.6,2.08V274.18a8,8,0,0,1-3.6,6.23l-105,60.6c-2,1.15-3.6.22-3.6-2.08V139.26A8,8,0,0,1,174.06,133Z" style="fill: rgb(255, 255, 255); transform-origin: 226.56px 206.708px;" id="el38xhzvk0eip" class="animable"></path><path d="M226.75,81.06c1.55-.9,2.81-.17,2.81,1.63a6.23,6.23,0,0,1-2.81,4.87c-1.56.9-2.82.17-2.82-1.62A6.22,6.22,0,0,1,226.75,81.06Z" style="fill: rgb(38, 50, 56); transform-origin: 226.745px 84.3101px;" id="elq6tdea6gabl" class="animable"></path><path d="M218.62,95.12c5.72-3.16,15.92-9.23,21.56-12.55,1-.56,1.73-.17,1.73.87a3.74,3.74,0,0,1-1.74,2.89L218.58,98.8c-1,.56-1.75.16-1.75-.88A3.59,3.59,0,0,1,218.62,95.12Z" style="fill: rgb(38, 50, 56); transform-origin: 229.37px 90.6839px;" id="els1uiltk3am" class="animable"></path><path d="M213.16,98.27c.88-.5,1.59-.09,1.59.91a3.48,3.48,0,0,1-1.59,2.74c-.87.51-1.58.1-1.58-.91A3.51,3.51,0,0,1,213.16,98.27Z" style="fill: rgb(38, 50, 56); transform-origin: 213.165px 100.098px;" id="el0by8d99yrerc" class="animable"></path><path d="M227.75,317.22c3.66-2.11,6.62-.4,6.62,3.83a14.63,14.63,0,0,1-6.62,11.48c-3.66,2.11-6.63.4-6.63-3.83A14.67,14.67,0,0,1,227.75,317.22Z" style="fill: rgb(38, 50, 56); transform-origin: 227.745px 324.875px;" id="elr9vifsqnx4" class="animable"></path></g></g><g id="freepik--profile-window-3--inject-3" class="animable animator-active" style="transform-origin: 331.995px 133.192px;"><path d="M364.77,17.13,361.06,15h0a2.17,2.17,0,0,0-2.23.21L267.46,67.94a6.93,6.93,0,0,0-3.13,5.43v173.8a2.23,2.23,0,0,0,.88,2h0l0,0h0l3.7,2.14,89.88-55.1a6.93,6.93,0,0,0,3.13-5.43Z" style="fill: rgb(186, 104, 200); transform-origin: 314.545px 133.048px;" id="el093zvb49qadf" class="animable"></path><path d="M268.89,251.31l-3.64-2.11h0l0,0h0a2.2,2.2,0,0,1-.88-2V73.37a6.53,6.53,0,0,1,1-3.26l3.7,2.14a6.45,6.45,0,0,0-1,3.26V249.32A2.25,2.25,0,0,0,268.89,251.31Z" style="fill: rgb(186, 104, 200); transform-origin: 266.714px 160.71px;" id="eluua3r0a4eme" class="animable"></path><g id="elh1m92jurh3d"><path d="M268.89,251.31l-3.64-2.11h0l0,0h0a2.2,2.2,0,0,1-.88-2V73.37a6.53,6.53,0,0,1,1-3.26l3.7,2.14a6.45,6.45,0,0,0-1,3.26V249.32A2.25,2.25,0,0,0,268.89,251.31Z" style="fill: rgb(255, 255, 255); opacity: 0.3; transform-origin: 266.714px 160.71px;" class="animable"></path></g><path d="M271.17,70.09l91.37-52.75c1.73-1,3.13-.19,3.13,1.81V193a6.93,6.93,0,0,1-3.13,5.43l-91.36,52.75c-1.74,1-3.14.19-3.14-1.81V75.51A6.92,6.92,0,0,1,271.17,70.09Z" style="fill: rgb(186, 104, 200); transform-origin: 316.855px 134.26px;" id="el6iwj9w8y0sn" class="animable"></path><g id="el3fvvqynn71g"><path d="M271.17,70.09l91.37-52.75c1.73-1,3.13-.19,3.13,1.81V193a6.93,6.93,0,0,1-3.13,5.43l-91.36,52.75c-1.74,1-3.14.19-3.14-1.81V75.51A6.92,6.92,0,0,1,271.17,70.09Z" style="fill: rgb(255, 255, 255); opacity: 0.6; transform-origin: 316.855px 134.26px;" class="animable"></path></g><path d="M361.05,15l3.58,2.07a2.27,2.27,0,0,0-2.1.28L271.16,70.09a6.25,6.25,0,0,0-2.11,2.16l-3.7-2.14a6.19,6.19,0,0,1,2.11-2.17L358.82,15.2a2.14,2.14,0,0,1,2.23-.2Z" style="fill: rgb(186, 104, 200); transform-origin: 314.99px 43.5133px;" id="elmjreowtyxh8" class="animable"></path><g id="ela74gmg1hs3o"><path d="M361.05,15l3.58,2.07a2.27,2.27,0,0,0-2.1.28L271.16,70.09a6.25,6.25,0,0,0-2.11,2.16l-3.7-2.14a6.19,6.19,0,0,1,2.11-2.17L358.82,15.2a2.14,2.14,0,0,1,2.23-.2Z" style="fill: rgb(255, 255, 255); opacity: 0.8; transform-origin: 314.99px 43.5133px;" class="animable"></path></g><g id="eljeu0drav1t"><ellipse cx="294.01" cy="195.1" rx="20.99" ry="12.12" style="fill: rgb(69, 90, 100); transform-origin: 294.01px 195.1px; transform: rotate(-60deg);" class="animable"></ellipse></g><polygon points="300.52 197.04 297.03 193.68 300.74 185.84 297.49 182.72 293.79 190.56 290.3 187.21 287.5 193.15 290.98 196.51 287.28 204.35 290.52 207.47 294.22 199.63 297.71 202.98 300.52 197.04" style="fill: rgb(255, 255, 255); transform-origin: 294.01px 195.095px;" id="el1bmhdfxj28t" class="animable"></polygon><g id="elbu69iofp9jj"><ellipse cx="342.24" cy="167.25" rx="20.99" ry="12.12" style="fill: rgb(69, 90, 100); transform-origin: 342.24px 167.25px; transform: rotate(-60deg);" class="animable"></ellipse></g><path d="M351.75,159a3.5,3.5,0,0,0-1.2-3h0v0c-.87-.62-2.15-.59-3.56.22-2.43,1.4-4.43,5.62-4.74,8.51-.3-2.54-2.3-4.45-4.73-3a9.9,9.9,0,0,0-3.56,3.89v0h0a9.51,9.51,0,0,0-1.2,4.35c0,4.35,3.49,6.65,6.42,7.81l3.08,1.21,3.09-4.77C348.26,169.63,351.75,163.3,351.75,159Z" style="fill: rgb(255, 255, 255); transform-origin: 342.264px 167.28px;" id="el5y9mw6u6u9f" class="animable"></path><polygon points="305.64 218.38 302.13 220.41 302.13 215.46 305.64 213.43 305.64 218.38" style="fill: rgb(255, 255, 255); transform-origin: 303.885px 216.92px;" id="el90g9pjci7tb" class="animable"></polygon><polygon points="301.39 215.88 284.69 225.52 284.69 222.76 280.01 230.7 284.69 233.23 284.69 230.47 301.39 220.83 301.39 215.88" style="fill: rgb(255, 255, 255); transform-origin: 290.7px 224.555px;" id="el5wggeo2ylv" class="animable"></polygon><polygon points="308 217.01 306.38 217.95 306.38 213.01 308 212.06 308 217.01" style="fill: rgb(255, 255, 255); transform-origin: 307.19px 215.005px;" id="elz46nlvkyyal" class="animable"></polygon><polygon points="330.61 199.01 334.13 196.98 334.13 201.93 330.61 203.96 330.61 199.01" style="fill: rgb(255, 255, 255); transform-origin: 332.37px 200.47px;" id="elw8kla6iqxd8" class="animable"></polygon><polygon points="334.86 201.51 351.56 191.87 351.56 194.62 356.24 186.69 351.56 184.16 351.56 186.92 334.86 196.56 334.86 201.51" style="fill: rgb(255, 255, 255); transform-origin: 345.55px 192.835px;" id="el2lijpebv17r" class="animable"></polygon><polygon points="328.25 200.38 329.88 199.44 329.88 204.38 328.25 205.32 328.25 200.38" style="fill: rgb(255, 255, 255); transform-origin: 329.065px 202.38px;" id="elifhfivszz" class="animable"></polygon><path d="M281.54,75.9l73.17-42.24c1.31-.76,2.38-.15,2.38,1.37v93.14a5.23,5.23,0,0,1-2.38,4.11l-73.17,42.17c-1.31.76-2.37.14-2.37-1.37V80A5.26,5.26,0,0,1,281.54,75.9Z" style="fill: rgb(255, 255, 255); transform-origin: 318.13px 104.054px;" id="elfl95sujk7h" class="animable"></path><g style="clip-path: url(&quot;#freepik--clip-path--inject-3&quot;); transform-origin: 341.035px 150.105px;" id="elq6imrudv5ld" class="animable"><g id="freepik--character-boy--inject-3" class="animable" style="transform-origin: 348.005px 134.097px;"><path d="M332.67,115.26s5.75-1.78,10.54,5.78c3.26,5.14,14.64,24.65,14.64,24.65S380,134,381.23,132.41s1.17-4.65,1.36-6.33c.31-2.8-.72-5.21-.86-6.22-.26-1.76,2.27-1.86,3.53.59.91,1.78,1,3.82,1.77,3.84a21.9,21.9,0,0,0,3.11-2.65c1.37-1.5,3.85-4,5.73-3.66a1.64,1.64,0,0,1,1.25,1.35,8.74,8.74,0,0,0,.7,3,4.73,4.73,0,0,1,.74,1.2,10.5,10.5,0,0,1,0,1.94c.08.93,1,1.32,1.11,2.23a17.17,17.17,0,0,1-.24,2.09c0,.45.15.84.14,1.29a4.18,4.18,0,0,1-1.14,2.46,25.94,25.94,0,0,1-6.57,5.5c-2,1.32-4.68,2.49-7,3.73S356.5,164,353,161.66s-20.89-27.74-20.89-27.74C328.15,122.72,332.67,115.26,332.67,115.26Z" style="fill: rgb(255, 168, 167); transform-origin: 365.077px 138.464px;" id="elu8meo8repzm" class="animable"></path><path d="M322.57,115.43s6.34-2.57,10.45-2.3,7.16,1.43,10.17,6.28c4,6.47,10.69,17.65,10.69,17.65a32.17,32.17,0,0,1-12.95,13.85l-12.27-18.52Z" style="fill: rgb(69, 90, 100); transform-origin: 338.225px 132.01px;" id="el2k65878824g" class="animable"></path><g id="freepik--character-boy--inject-3" class="animable" style="transform-origin: 318.635px 134.097px;"><path d="M302.46,126.63a13.62,13.62,0,0,0-4.49,6.59,32.43,32.43,0,0,0-1.36,9.66v21.05l-.27,39.84c13.36,4.55,30.34.54,44.59-15.3,0,0-.79-51-.79-59.33,0-.38,0-.76,0-1.15-.51-11.81-10.71-17.29-20.75-11.61l-8.43,4.76-8.47,5.49Z" style="fill: rgb(250, 250, 250); transform-origin: 318.635px 159.826px;" id="elgi1s2rhd0bv" class="animable"></path><path d="M311.6,83.31c0,9,6.31,14.57,14.08,12.48s14.09-11.05,14.09-20-6.72-9-14.5-6.9S311.6,74.32,311.6,83.31Z" style="fill: rgb(38, 50, 56); transform-origin: 325.685px 81.9923px;" id="ell061p93dq77" class="animable"></path><path d="M304.25,97.52s2.07,10.7,2.91,12.33a3.19,3.19,0,0,0,2.55,1.69l-.15-7.88Z" style="fill: rgb(38, 50, 56); transform-origin: 306.98px 104.53px;" id="elhpwwzbc9xmd" class="animable"></path><path d="M306.85,80.7a5.76,5.76,0,0,0-4,2.68c-1.71,2.47-.76,8.53,1.37,14.14l3.91-.53Z" style="fill: rgb(38, 50, 56); transform-origin: 305.049px 89.11px;" id="elksf6vtfyk58" class="animable"></path><path d="M309.33,96.68c-.78.75-1.9-.69-2.87-1.6s-4.12-1.66-5.69,2.59,1.38,8.69,3.87,8.93c4.28.4,4.92-2.94,4.92-2.94l.15,18.27c7.18,7.62,19.76-1.36,14.11-4.73l0-5.43a25,25,0,0,0,5.78-1.2c3.14-1.41,5.12-4.8,6.08-9,1.53-6.73,2.12-12,.81-24.07-1.42-13.24-15.15-9.7-22.56-2.33S309.33,96.68,309.33,96.68Z" style="fill: rgb(255, 168, 167); transform-origin: 318.772px 96.757px;" id="el5kt7w1sqbbm" class="animable"></path><path d="M315.86,93a6.61,6.61,0,0,1,4.37-6.21l.68-.18c2.41-.65,4.36,1.09,4.36,3.87s-1.95,5.57-4.36,6.22l-.68.18C317.82,97.52,315.86,95.78,315.86,93Zm4.37-5.36a5.49,5.49,0,0,0-3.63,5.17c0,2.31,1.63,3.75,3.63,3.22l.68-.18a5.5,5.5,0,0,0,3.63-5.17c0-2.31-1.63-3.76-3.63-3.22Z" style="fill: rgb(38, 50, 56); transform-origin: 320.565px 91.7432px;" id="el6g84rrifxh4" class="animable"></path><path d="M329.18,89.44a6.61,6.61,0,0,1,4.37-6.22l.67-.18c2.41-.64,4.37,1.09,4.37,3.87s-2,5.57-4.37,6.22l-.67.18C331.14,94,329.18,92.22,329.18,89.44Zm4.37-5.37a5.5,5.5,0,0,0-3.63,5.17c0,2.31,1.63,3.75,3.63,3.22l.67-.18a5.49,5.49,0,0,0,3.63-5.17c0-2.31-1.62-3.75-3.63-3.22Z" style="fill: rgb(38, 50, 56); transform-origin: 333.885px 88.1829px;" id="elo49iajj63pr" class="animable"></path><path d="M325.22,89.5a4,4,0,0,1,2.31-2,1.77,1.77,0,0,1,2,.33l.59-.67a2.29,2.29,0,0,0-2.64-.5,5,5,0,0,0-2.9,2.54Z" style="fill: rgb(38, 50, 56); transform-origin: 327.35px 87.9711px;" id="elaa7xq24omml" class="animable"></path><polygon points="306.98 95.2 316.27 92.71 316.27 91.86 306.98 94.35 306.98 95.2" style="fill: rgb(38, 50, 56); transform-origin: 311.625px 93.53px;" id="elpuctztrw2is" class="animable"></polygon><path d="M309.33,98.2c-.39.12-1.89-2.35-2.87-3.12-1.35-1.06.39-14.38.39-14.38-1.56-3.44,1.32-8.63,4.34-10.74a17.39,17.39,0,0,1,7.14-2.62c2.16-.4,4.32-.7,6.46-.9a58.85,58.85,0,0,0,7.83-.94,17.31,17.31,0,0,0,6.19-2.66c.63-.44,1.27,0,1.07.84a11,11,0,0,1-.74,2,18.89,18.89,0,0,1-2.08,3.67,30.51,30.51,0,0,1-3,3.36c-5.79,5.48-13.11,7-19.56,7.69-1.45.16-1.76,1.87-2.55,6.52C311.23,91.05,310.65,97.82,309.33,98.2Z" style="fill: rgb(38, 50, 56); transform-origin: 322.932px 80.4354px;" id="elnjo04mmt86" class="animable"></path><path d="M306.86,81.69,302.12,80c.67-1.75,2.28-2.8,3.59-2.34S307.53,80,306.86,81.69Z" style="fill: rgb(38, 50, 56); transform-origin: 304.637px 79.6209px;" id="el34qx7myqcar" class="animable"></path><path d="M323.8,111.77s-7,.25-9.48-.6a6,6,0,0,1-3.4-3,10.36,10.36,0,0,0,1.93,4.06c1.8,2.17,10.95,1.67,10.95,1.67Z" style="fill: rgb(242, 143, 143); transform-origin: 317.36px 111.06px;" id="el1tu3zcn8ycp" class="animable"></path><path d="M322.12,91.22a2.17,2.17,0,0,1-1.41,2.07c-.78.2-1.41-.39-1.41-1.32a2.16,2.16,0,0,1,1.41-2.06C321.49,89.7,322.12,90.29,322.12,91.22Z" style="fill: rgb(38, 50, 56); transform-origin: 320.71px 91.5982px;" id="el5a9jkc783mb" class="animable"></path><path d="M319.85,85.1l-3,2.73a2.67,2.67,0,0,1,.7-3A1.38,1.38,0,0,1,319.85,85.1Z" style="fill: rgb(38, 50, 56); transform-origin: 318.252px 86.0803px;" id="ela1kytmbbro6" class="animable"></path><path d="M323.17,102.18l3.21.53a2.2,2.2,0,0,1-2.18,1.81C323.31,104.38,322.85,103.33,323.17,102.18Z" style="fill: rgb(242, 143, 143); transform-origin: 324.724px 103.35px;" id="elkevez38up6k" class="animable"></path><path d="M335,82.46l-2.74-1.71c.56-1,1.63-1.53,2.39-1.06A2.13,2.13,0,0,1,335,82.46Z" style="fill: rgb(38, 50, 56); transform-origin: 333.809px 80.9884px;" id="elmuh4brcmlz" class="animable"></path><path d="M333.83,87.62a2.17,2.17,0,0,1-1.41,2.07c-.78.2-1.41-.39-1.41-1.32a2.16,2.16,0,0,1,1.41-2.06C333.2,86.1,333.83,86.69,333.83,87.62Z" style="fill: rgb(38, 50, 56); transform-origin: 332.42px 87.9982px;" id="elt2t0567zk4c" class="animable"></path><polygon points="326.87 88.18 327.03 98 332.08 95.36 326.87 88.18" style="fill: rgb(242, 143, 143); transform-origin: 329.475px 93.09px;" id="elyz8rvx0pcli" class="animable"></polygon></g></g><path d="M282.59,186.86c3-40.58,9-55.13,18.85-59.4,3.41,2.55,4.24,14.48.67,23.54,0,0-7.68,27.05-8.12,36.25a147.47,147.47,0,0,0,1.58,25.58,3.57,3.57,0,0,0,1.55,2.54c2.16,1.41,2,3.45,3.57,5.39,1.21,1.51,2.34,1.78,2.11,2.34a2.69,2.69,0,0,1-3,1.62,8.27,8.27,0,0,1-2.66-1.43,22.22,22.22,0,0,0,2.79,6c2.82,4.3,2.68,7.19-3.92,8.17-4.13.61-7.14-2-9.22-12.32-.6-3-2-8.36-2.6-12.23C282.5,201.83,282.11,193.4,282.59,186.86Z" style="fill: rgb(255, 168, 167); transform-origin: 293.411px 182.502px;" id="el3cxtnoffrby" class="animable"></path><path d="M304.25,125.47s-7.2,2.52-10.84,8.42-7.11,15.38-9.54,32.23c0,0,4.56,6.23,16.44,1,0,0,5.18-21.49,5.64-30C306.45,127.91,304.25,125.47,304.25,125.47Z" style="fill: rgb(69, 90, 100); transform-origin: 294.947px 147.34px;" id="elp0zs2yny4hl" class="animable"></path></g></g><g id="freepik--profile-window-2--inject-3" class="animable" style="transform-origin: 144.639px 233.454px;"><path d="M95.17,351.61l-3.64-2.11h0l0,0h0a2.22,2.22,0,0,1-.88-2V173.66a6.56,6.56,0,0,1,1-3.25l3.71,2.14a6.37,6.37,0,0,0-1,3.26v173.8A2.27,2.27,0,0,0,95.17,351.61Z" style="fill: rgb(186, 104, 200); transform-origin: 92.9995px 261.01px;" id="elqy3afhcrds" class="animable"></path><g id="el3yfo0kj806d"><path d="M95.17,351.61l-3.64-2.11h0l0,0h0a2.22,2.22,0,0,1-.88-2V173.66a6.56,6.56,0,0,1,1-3.25l3.71,2.14a6.37,6.37,0,0,0-1,3.26v173.8A2.27,2.27,0,0,0,95.17,351.61Z" style="fill: rgb(255, 255, 255); opacity: 0.3; transform-origin: 92.9995px 261.01px;" class="animable"></path></g><path d="M97.45,170.38l91.37-52.75c1.73-1,3.13-.18,3.13,1.81V293.25a6.93,6.93,0,0,1-3.13,5.43L97.46,351.42c-1.73,1-3.14.19-3.14-1.81V175.81A6.93,6.93,0,0,1,97.45,170.38Z" style="fill: rgb(186, 104, 200); transform-origin: 143.135px 234.526px;" id="eli577ff6hr9l" class="animable"></path><g id="elyvs6aindukl"><path d="M97.45,170.38l91.37-52.75c1.73-1,3.13-.18,3.13,1.81V293.25a6.93,6.93,0,0,1-3.13,5.43L97.46,351.42c-1.73,1-3.14.19-3.14-1.81V175.81A6.93,6.93,0,0,1,97.45,170.38Z" style="fill: rgb(255, 255, 255); opacity: 0.6; transform-origin: 143.135px 234.526px;" class="animable"></path></g><path d="M187.33,115.28l3.58,2.07a2.23,2.23,0,0,0-2.09.3L97.45,170.38a6.05,6.05,0,0,0-2.12,2.17l-3.7-2.14a6.14,6.14,0,0,1,2.11-2.18l91.36-52.74a2.16,2.16,0,0,1,2.23-.2Z" style="fill: rgb(186, 104, 200); transform-origin: 141.27px 143.81px;" id="elny1vunh1wje" class="animable"></path><g id="eltqu367hnbjh"><path d="M187.33,115.28l3.58,2.07a2.23,2.23,0,0,0-2.09.3L97.45,170.38a6.05,6.05,0,0,0-2.12,2.17l-3.7-2.14a6.14,6.14,0,0,1,2.11-2.18l91.36-52.74a2.16,2.16,0,0,1,2.23-.2Z" style="fill: rgb(255, 255, 255); opacity: 0.8; transform-origin: 141.27px 143.81px;" class="animable"></path></g><g id="elf56t4s8it8"><ellipse cx="120.29" cy="295.39" rx="20.99" ry="12.12" style="fill: rgb(69, 90, 100); transform-origin: 120.29px 295.39px; transform: rotate(-60deg);" class="animable"></ellipse></g><polygon points="126.8 297.33 123.31 293.98 127.02 286.14 123.77 283.02 120.07 290.86 116.58 287.5 113.78 293.45 117.26 296.8 113.56 304.64 116.8 307.76 120.5 299.92 123.99 303.28 126.8 297.33" style="fill: rgb(255, 255, 255); transform-origin: 120.29px 295.39px;" id="elf20i8q1ncjv" class="animable"></polygon><g id="elmi3womozvc"><ellipse cx="168.53" cy="267.54" rx="20.99" ry="12.12" style="fill: rgb(69, 90, 100); transform-origin: 168.53px 267.54px; transform: rotate(-60deg);" class="animable"></ellipse></g><path d="M178,259.24a3.47,3.47,0,0,0-1.2-2.95h0c-.87-.62-2.15-.6-3.56.22-2.43,1.39-4.43,5.62-4.73,8.5-.31-2.53-2.31-4.44-4.74-3a10,10,0,0,0-3.56,3.89v0h0a9.47,9.47,0,0,0-1.2,4.34c0,4.35,3.49,6.65,6.42,7.81l3.09,1.22,3.08-4.78C174.54,269.93,178,263.59,178,259.24Z" style="fill: rgb(255, 255, 255); transform-origin: 168.512px 267.563px;" id="el02b8xt17wuss" class="animable"></path><polygon points="131.92 318.67 128.41 320.7 128.41 315.75 131.92 313.72 131.92 318.67" style="fill: rgb(255, 255, 255); transform-origin: 130.165px 317.21px;" id="elxcum6e4eva" class="animable"></polygon><polygon points="127.67 316.18 110.98 325.82 110.98 323.06 106.29 331 110.98 333.52 110.98 330.76 127.67 321.12 127.67 316.18" style="fill: rgb(255, 255, 255); transform-origin: 116.98px 324.85px;" id="elbnlrhww1yz" class="animable"></polygon><polygon points="134.28 317.31 132.66 318.25 132.66 313.3 134.28 312.36 134.28 317.31" style="fill: rgb(255, 255, 255); transform-origin: 133.47px 315.305px;" id="elxnmqxtsa4ge" class="animable"></polygon><polygon points="156.89 299.31 160.41 297.27 160.41 302.22 156.89 304.25 156.89 299.31" style="fill: rgb(255, 255, 255); transform-origin: 158.65px 300.76px;" id="el55d22i6y2xl" class="animable"></polygon><polygon points="161.14 301.8 177.84 292.16 177.84 294.92 182.52 286.98 177.84 284.45 177.84 287.21 161.14 296.85 161.14 301.8" style="fill: rgb(255, 255, 255); transform-origin: 171.83px 293.125px;" id="el3eodhi1n5p5" class="animable"></polygon><polygon points="154.53 300.67 156.16 299.73 156.16 304.68 154.53 305.62 154.53 300.67" style="fill: rgb(255, 255, 255); transform-origin: 155.345px 302.675px;" id="elycdllsehtbq" class="animable"></polygon><path d="M107.82,176.2,181,134c1.32-.76,2.38-.14,2.38,1.37v93.15a5.26,5.26,0,0,1-2.38,4.11l-73.17,42.17c-1.31.75-2.37.14-2.37-1.38V180.31A5.24,5.24,0,0,1,107.82,176.2Z" style="fill: rgb(255, 255, 255); transform-origin: 144.42px 204.398px;" id="eli9n8zh446bc" class="animable"></path><g style="clip-path: url(&quot;#freepik--clip-path-2--inject-3&quot;); transform-origin: 152.068px 252.545px;" id="elio4h928evpb" class="animable"><g id="freepik--Character--inject-3" class="animable" style="transform-origin: 175.476px 263.735px;"><path d="M166,269.59c-8.82-38.7-19.43-45.72-10-53.77,11-1.68,15.21,1.77,16.9,13.11.83,5.54,2.62,28.74,4.87,37.41,2,7.62,4.64,17.05,7.6,22.5a3.25,3.25,0,0,0,2.44,1.7c2.76.39,3.57,1.94,5.82,3.09,1.75.89,3.05.66,3,1.28a3.45,3.45,0,0,1-2.78,2.75,9.78,9.78,0,0,1-3.29-.22,18.37,18.37,0,0,0,4.8,4.41c4.32,2.79,5,5.52-1.82,9.17-4.29,2.29-8.31,1.17-13.63-7.53a70.72,70.72,0,0,1-5.37-10.09C170.85,284,167.47,275.81,166,269.59Z" style="fill: rgb(177, 102, 104); transform-origin: 175.476px 263.735px;" id="elhzse6qihhma" class="animable"></path></g><path d="M171.57,207.34l-28.84,7.73c-6.85,1.84-12.41-3.09-12.41-11V192.92c0-12.68,8.9-25.34,19.88-28.28l1.49-.4c11-2.94,19.88,4.95,19.88,17.63v25.47Z" style="fill: rgb(38, 50, 56); transform-origin: 150.945px 189.54px;" id="elbg4xkculbr7" class="animable"></path><path d="M137,174.65c1.17-1.56,1.25-3.7.17-4.76s-2.91-.67-4.09.89Z" style="fill: rgb(38, 50, 56); transform-origin: 135.506px 171.972px;" id="el190r8l6473h" class="animable"></path><path d="M137.18,174.89a2.25,2.25,0,0,0-3.42-1.66,4.49,4.49,0,0,0-2.24,4.56Z" style="fill: rgb(38, 50, 56); transform-origin: 134.327px 175.342px;" id="eldlqux4vrfe5" class="animable"></path><path d="M142.83,219.79s-12,2.84-13.49,4c8.72,9.34,1.59,29.07,1.59,29.07l4.84,16.85a97.37,97.37,0,0,0-9.93,22.72c-2.89,9.57-4.74,16.77-7,45.59,11.44,9.11,49.55-.85,59.24-18.11,0,0-3-18.9-6.83-36.45-2.82-12.81-5.6-19.74-4.91-24.36,5.1-19.52,5.5-24.38,4.6-28.19-2.55-10.71-12.61-15.72-15.09-15.05Z" style="fill: rgb(55, 71, 79); transform-origin: 148.46px 278.633px;" id="elavjhr83iemf" class="animable"></path><path d="M163.8,171.3c2.18.9,4.88,6.5,4.61,19.84-.23,11.3-3.38,14.92-5,16.15s-4.63,1.55-7.61,1.78v6.74s4.11,4.41,3.85,7.57-5.93,5.41-9.77,3.42-7.08-7-7.08-7l.07-15.53s-1.75,2.43-4.71.23a6.41,6.41,0,0,1-1.37-8.51c1.91-2.75,5.43-3.08,6.79-.26,0,0,1.65-5.73,8.49-10.15C158.28,181.58,161.64,178,163.8,171.3Z" style="fill: rgb(177, 102, 104); transform-origin: 152.089px 199.425px;" id="ell00k17izi7" class="animable"></path><path d="M157.54,191.23a1.89,1.89,0,0,1-1.16,1.84c-.67.22-1.25-.25-1.28-1.06a1.89,1.89,0,0,1,1.15-1.84C156.93,190,157.51,190.43,157.54,191.23Z" style="fill: rgb(38, 50, 56); transform-origin: 156.32px 191.629px;" id="elmivudxdx9u" class="animable"></path><path d="M157.87,200.67l2.84.28a2,2,0,0,1-1.85,1.68C158.08,202.55,157.63,201.67,157.87,200.67Z" style="fill: rgb(154, 74, 77); transform-origin: 159.258px 201.65px;" id="elqr8zbfznqs" class="animable"></path><path d="M167.58,184.2l-2.48-1.32c.45-.94,1.37-1.41,2.06-1A1.79,1.79,0,0,1,167.58,184.2Z" style="fill: rgb(38, 50, 56); transform-origin: 166.467px 182.966px;" id="el4syhv531srt" class="animable"></path><path d="M154,188.89l2.48-2.65c-.46-.7-1.38-.67-2.06.06A2.27,2.27,0,0,0,154,188.89Z" style="fill: rgb(38, 50, 56); transform-origin: 155.124px 187.312px;" id="eldkft5ue4zn" class="animable"></path><path d="M167,187.67a1.92,1.92,0,0,1-1.16,1.84c-.68.22-1.25-.25-1.29-1a1.93,1.93,0,0,1,1.16-1.85C166.4,186.39,167,186.87,167,187.67Z" style="fill: rgb(38, 50, 56); transform-origin: 165.775px 188.074px;" id="elfuacn8b5gpu" class="animable"></path><polygon points="161.23 188.41 161.43 196.86 165.31 194.44 161.23 188.41" style="fill: rgb(154, 74, 77); transform-origin: 163.27px 192.635px;" id="eltxlhb1n2nd9" class="animable"></polygon><path d="M155.83,209.07c-3.13.36-9.57,0-10.57-2.72a5.56,5.56,0,0,0,2.26,3.15c1.92,1.38,8.31,1.82,8.31,1.82Z" style="fill: rgb(154, 74, 77); transform-origin: 150.545px 208.835px;" id="el33yfl7r0ufs" class="animable"></path><polygon points="133.43 261.56 142.23 272.75 135.77 269.7 133.43 261.56" style="fill: rgb(38, 50, 56); transform-origin: 137.83px 267.155px;" id="el9xitpdfby7j" class="animable"></polygon><path d="M108.58,284.21c7.45-37.18,12.61-54.74,20.76-60.43,4.09.41,5.33,5.85,5.76,8.95.78,5.58-.55,13.36-4.17,20.12,0,0-10.16,24.9-11.89,34.79-1.52,8.65-3.24,19.48-3.15,26.56a4.46,4.46,0,0,0,1.2,3.14c2,2,2,4,3.29,6.37,1,1.88,2.11,2.39,1.8,3a2.56,2.56,0,0,1-3.27,1.15,9.06,9.06,0,0,1-2.47-2.08,26.86,26.86,0,0,0,2,7.1c2.24,5.22,1.69,8.33-5.11,8.08-4.25-.16-6.93-3.54-7.57-15.19a105.08,105.08,0,0,1-.11-13.05C106.52,301.23,107.18,291.2,108.58,284.21Z" style="fill: rgb(177, 102, 104); transform-origin: 120.407px 282.377px;" id="el4wntiqw7ug" class="animable"></path></g><g id="el2v4tfvvd2vk"><path d="M167.93,310.74l20.89-12.06a6.93,6.93,0,0,0,3.13-5.43V119.44c0-2-1.4-2.8-3.13-1.81L167.93,129.7Z" style="opacity: 0.1; transform-origin: 179.94px 213.973px;" class="animable"></path></g><path d="M167.93,129.7l20.88-12.06a2.27,2.27,0,0,1,2.1-.29l-3.58-2.07h0a2.16,2.16,0,0,0-2.23.2l-20.88,12.07Z" style="fill: rgb(186, 104, 200); transform-origin: 177.565px 122.38px;" id="elua4815dwhk" class="animable"></path><g id="el6vgsx3zp2ig"><path d="M167.93,129.7l20.88-12.06a2.27,2.27,0,0,1,2.1-.29l-3.58-2.07h0a2.16,2.16,0,0,0-2.23.2l-20.88,12.07Z" style="fill: rgb(255, 255, 255); opacity: 0.5; transform-origin: 177.565px 122.38px;" class="animable"></path></g></g><g id="freepik--profile-window-1--inject-3" class="animable" style="transform-origin: 236.6px 204.787px;"><path d="M285,88.88l-3.71-2.15h0a2.19,2.19,0,0,0-2.23.2l-91.37,52.75a6.92,6.92,0,0,0-3.13,5.42V318.92a2.21,2.21,0,0,0,.88,2h0l0,0h0l3.7,2.14L279.05,268a6.92,6.92,0,0,0,3.13-5.42Z" style="fill: rgb(186, 104, 200); transform-origin: 234.774px 204.787px;" id="el9z5hpjhcuel" class="animable"></path><g id="eln9cijfvgcpe"><path d="M189.11,323.06,185.47,321h0l0,0h0a2.21,2.21,0,0,1-.88-2V145.11a6.46,6.46,0,0,1,1-3.25l3.7,2.14a6.45,6.45,0,0,0-1,3.26V321.07A2.26,2.26,0,0,0,189.11,323.06Z" style="opacity: 0.1; transform-origin: 186.934px 232.46px;" class="animable"></path></g><g id="elh01xdl72t7o"><path d="M281.27,86.73l3.58,2.07a2.27,2.27,0,0,0-2.1.29l-91.37,52.74a6.28,6.28,0,0,0-2.11,2.17l-3.7-2.14a6.11,6.11,0,0,1,2.11-2.17L279,86.94a2.16,2.16,0,0,1,2.23-.2Z" style="fill: rgb(255, 255, 255); opacity: 0.5; transform-origin: 235.21px 115.26px;" class="animable"></path></g><g id="el35lz0yrd8ta"><ellipse cx="214.23" cy="266.84" rx="20.99" ry="12.12" style="fill: rgb(69, 90, 100); transform-origin: 214.23px 266.84px; transform: rotate(-60deg);" class="animable"></ellipse></g><polygon points="220.74 268.78 217.25 265.43 220.96 257.59 217.71 254.47 214.01 262.31 210.52 258.95 207.72 264.9 211.2 268.25 207.5 276.09 210.74 279.21 214.44 271.38 217.93 274.73 220.74 268.78" style="fill: rgb(255, 255, 255); transform-origin: 214.23px 266.84px;" id="el2dxqbcm1why" class="animable"></polygon><g id="elg674b1ngzbv"><ellipse cx="262.46" cy="238.99" rx="20.99" ry="12.12" style="fill: rgb(69, 90, 100); transform-origin: 262.46px 238.99px; transform: rotate(-60deg);" class="animable"></ellipse></g><path d="M272,230.69a3.47,3.47,0,0,0-1.2-2.95h0a3.24,3.24,0,0,0-3.56.22c-2.43,1.39-4.43,5.62-4.74,8.5-.3-2.53-2.3-4.44-4.73-3a10,10,0,0,0-3.56,3.9v0h0a9.47,9.47,0,0,0-1.2,4.34c0,4.35,3.49,6.65,6.42,7.82l3.08,1.21,3.09-4.78C268.48,241.38,272,235.05,272,230.69Z" style="fill: rgb(255, 255, 255); transform-origin: 262.512px 239.02px;" id="elt82xlb228jj" class="animable"></path><polygon points="225.86 290.12 222.35 292.15 222.35 287.2 225.86 285.17 225.86 290.12" style="fill: rgb(255, 255, 255); transform-origin: 224.105px 288.66px;" id="elnt3pvad222j" class="animable"></polygon><polygon points="221.61 287.63 204.91 297.27 204.91 294.51 200.23 302.45 204.91 304.97 204.91 302.21 221.61 292.57 221.61 287.63" style="fill: rgb(255, 255, 255); transform-origin: 210.92px 296.3px;" id="ellxlvsg3g1s" class="animable"></polygon><polygon points="228.22 288.76 226.59 289.7 226.59 284.75 228.22 283.81 228.22 288.76" style="fill: rgb(255, 255, 255); transform-origin: 227.405px 286.755px;" id="el8t9iypl98bb" class="animable"></polygon><polygon points="250.83 270.76 254.34 268.73 254.34 273.67 250.83 275.7 250.83 270.76" style="fill: rgb(255, 255, 255); transform-origin: 252.585px 272.215px;" id="elqpyjjm7j7zt" class="animable"></polygon><polygon points="255.08 273.25 271.78 263.61 271.78 266.37 276.46 258.43 271.78 255.91 271.78 258.66 255.08 268.3 255.08 273.25" style="fill: rgb(255, 255, 255); transform-origin: 265.77px 264.58px;" id="elzzwbjsx5bq" class="animable"></polygon><polygon points="248.47 272.12 250.1 271.18 250.1 276.13 248.47 277.07 248.47 272.12" style="fill: rgb(255, 255, 255); transform-origin: 249.285px 274.125px;" id="ely77ifkc1sh" class="animable"></polygon><path d="M201.76,147.65l73.17-42.25c1.31-.76,2.38-.14,2.38,1.37v93.15a5.26,5.26,0,0,1-2.38,4.11L201.76,246.2c-1.31.75-2.38.14-2.38-1.37V151.76A5.26,5.26,0,0,1,201.76,147.65Z" style="fill: rgb(255, 255, 255); transform-origin: 238.345px 175.798px;" id="elbe3rc1l7yeg" class="animable"></path><g style="clip-path: url(&quot;#freepik--clip-path-3--inject-3&quot;); transform-origin: 246.268px 224.225px;" id="elhmrnmsnt0fk" class="animable"><g id="freepik--character--inject-3" class="animable" style="transform-origin: 254.557px 210.693px;"><path d="M258.3,243.69c-8.21-36-17.6-42.37-8.83-49.87,9-3.43,13.68,1.47,15.25,12,.77,5.16,2.44,26.75,4.54,34.82,1.84,7.09,4.32,15.87,7.07,20.94a3,3,0,0,0,2.27,1.58c2.57.37,3.32,1.82,5.41,2.88,1.64.83,2.85.62,2.77,1.2a3.2,3.2,0,0,1-2.59,2.55,8.85,8.85,0,0,1-3.06-.2,17,17,0,0,0,4.47,4.1c4,2.6,4.68,5.14-1.7,8.54-4,2.13-7.73,1.09-12.68-7a65.23,65.23,0,0,1-5-9.39C262.78,257.09,259.63,249.49,258.3,243.69Z" style="fill: rgb(255, 168, 167); transform-origin: 267.3px 237.962px;" id="elo2wywfznbdb" class="animable"></path><path d="M235,198.17h0c-8.93,3.1-9.55,8.24-11.79,14.28a20.64,20.64,0,0,0-.42,13.4L229.05,245a127.68,127.68,0,0,0-6.29,17.49c15.61,5.88,35.1-4.63,39.79-13.23.2-1.61-1-13.46-1.75-21.21,2.75-8.7,3.47-13.94,2.31-18.89C261,199.92,252.6,192.64,248.9,194Z" style="fill: rgb(69, 90, 100); transform-origin: 242.757px 229.017px;" id="elx22tmam6i1d" class="animable"></path><path d="M245.65,185.86l-6.58,1.8c-9.17,2.5-16.64-4-16.68-14.62h0c-.05-12.68,8.82-25.38,19.8-28.38h0c11-3,19.93,4.85,20,17.52h0C262.22,172.76,254.82,183.36,245.65,185.86Z" style="fill: rgb(38, 50, 56); transform-origin: 242.29px 166.108px;" id="eld6j1nlsqmni" class="animable"></path><path d="M237.05,140.64c2.84,4.07-.17,8.18-4.36,12.58s-7.95,7.43-10.79,3.36-1.27-9.88,2.91-14.28S234.21,136.57,237.05,140.64Z" style="fill: rgb(38, 50, 56); transform-origin: 229.312px 148.346px;" id="el8xqclb1jpcw" class="animable"></path><path d="M226.81,158.32l-4.21,4.73a3.48,3.48,0,0,1,.45-4.34C224.21,157.41,225.9,157.23,226.81,158.32Z" style="fill: rgb(38, 50, 56); transform-origin: 224.426px 160.328px;" id="eljr6xctrr6q" class="animable"></path><path d="M254.5,151.59c2.11.86,4.73,6.25,4.52,19.1-.18,10.89-3.21,14.4-4.74,15.59s-4.47,1.52-7.34,1.75l.16,6.54s4.83,3.27,4.6,6.32-6.7,6.16-10.42,4.26a31.29,31.29,0,0,1-6.68-4.86.53.53,0,0,1-.16-.41V183.46s-1.68,2.35-4.55.25a6.14,6.14,0,0,1-1.34-8.19c1.83-2.66,5.23-3,6.54-.29,0,0,4.58-1,10.65-6.57A27.58,27.58,0,0,0,254.5,151.59Z" style="fill: rgb(255, 168, 167); transform-origin: 243.289px 178.661px;" id="el1ull3l40mhe" class="animable"></path><path d="M248.52,170.83a1.83,1.83,0,0,1-1.11,1.78c-.65.22-1.21-.24-1.24-1a1.83,1.83,0,0,1,1.11-1.78C247.93,169.61,248.49,170.06,248.52,170.83Z" style="fill: rgb(38, 50, 56); transform-origin: 247.345px 171.22px;" id="el3urydgs6lfx" class="animable"></path><path d="M248.87,179.93l2.75.26a1.92,1.92,0,0,1-1.78,1.62C249.08,181.74,248.65,180.89,248.87,179.93Z" style="fill: rgb(242, 143, 143); transform-origin: 250.216px 180.87px;" id="el8ize5qqkclh" class="animable"></path><path d="M258.19,164l-2.4-1.26c.44-.91,1.32-1.36,2-1A1.71,1.71,0,0,1,258.19,164Z" style="fill: rgb(38, 50, 56); transform-origin: 257.121px 162.808px;" id="elz70b71hs2k" class="animable"></path><path d="M257.65,167.35a1.84,1.84,0,0,1-1.11,1.79c-.65.21-1.21-.24-1.25-1a1.86,1.86,0,0,1,1.11-1.79C257.06,166.13,257.61,166.58,257.65,167.35Z" style="fill: rgb(38, 50, 56); transform-origin: 256.47px 167.743px;" id="elk0anxmqtocl" class="animable"></path><polygon points="252.33 167.35 252.29 176.24 256.03 173.88 252.33 167.35" style="fill: rgb(242, 143, 143); transform-origin: 254.16px 171.795px;" id="elnf9030q3vk" class="animable"></polygon><path d="M246.94,188c-3,.37-9.24,0-10.22-2.56a5.38,5.38,0,0,0,2.19,3c1.86,1.32,8.08,1.72,8.08,1.72Z" style="fill: rgb(242, 143, 143); transform-origin: 241.855px 187.8px;" id="el41r9lmw9ox3" class="animable"></path><path d="M239,260c-5.13,0-8.38-5.14-7-11.38.06-.24.11-.45.16-.61,1-3.06,3.16-3.27,3.16-3.27h0c-2-1-3-3.4-3.45-6l-2.34-12.15a18,18,0,0,1,.48-6.45l-6.28-6.7-1.15,1.25a20.28,20.28,0,0,0,.25,11.15L229.05,245a117.59,117.59,0,0,0-6.29,17.49c11.5,4.33,25.1-.24,33.35-6.38A42.38,42.38,0,0,1,239,260Z" style="fill: rgb(55, 71, 79); transform-origin: 239.014px 238.818px;" id="el34rf5t88d0w" class="animable"></path></g><path d="M206.78,257.45c6.94-34.61,12.33-50.11,19.92-55.42,2.46-1.72,5.11-.67,5.51,2.22.73,5.19-.58,13.52-4,19.81,0,0-10.12,27.38-11.74,36.59-1.41,8.05-3,18.13-2.93,24.72a4.15,4.15,0,0,0,1.12,2.92c1.86,1.82,1.86,3.69,3.06,5.93.94,1.75,2,2.22,1.68,2.75a2.39,2.39,0,0,1-3,1.08,8.17,8.17,0,0,1-2.31-1.94,25,25,0,0,0,1.83,6.61c2.08,4.85,1.57,7.75-4.76,7.52-4-.15-6.45-3.29-7-14.14A98.25,98.25,0,0,1,204,284C204.87,273.29,205.48,264,206.78,257.45Z" style="fill: rgb(255, 168, 167); transform-origin: 218.145px 255.726px;" id="el7izmk8zq8ks" class="animable"></path></g></g><g id="freepik--character--inject-3" class="animable" style="transform-origin: 318.858px 314.198px;"><g id="freepik--character--inject-3" class="animable" style="transform-origin: 318.858px 314.198px;"><path d="M369.38,281.11c.8-29.79-1.59-36.93-9.52-42.39L356.79,256s3.61,20.34,3.22,27.12c-.34,5.95-.91,13.4-2.32,18.21a3.65,3.65,0,0,1-1.58,2c-2,1.26-2.83,2.56-4.36,4.15-1.19,1.25-2.2,1.56-2,2a2,2,0,0,0,2.51.89,13.9,13.9,0,0,0,2.86-1.56,18.08,18.08,0,0,1-2.93,5c-2.83,3.48-3,5.61,2.76,5.66,3.58,0,6.44-2.18,9.14-10.07a66.19,66.19,0,0,0,2.52-8.87C367.93,292.74,369.25,285.9,369.38,281.11Z" style="fill: rgb(255, 168, 167); transform-origin: 359.625px 279.095px;" id="eld39kd0l98p8" class="animable"></path><path d="M353.19,236.46c3.78-.55,8.93.24,12.25,6.19S369.58,258.82,370,269c0,0-6.6,5.52-14.52,2.8Z" style="fill: rgb(186, 104, 200); transform-origin: 361.595px 254.434px;" id="elp93g0smunr" class="animable"></path><g id="el3n5mwpioypj"><path d="M353.19,236.46c3.78-.55,8.93.24,12.25,6.19S369.58,258.82,370,269c0,0-6.6,5.52-14.52,2.8Z" style="opacity: 0.1; transform-origin: 361.595px 254.434px;" class="animable"></path></g><path d="M364.33,400.31c.6.22.75,1.37.84,3.65.07,1.72.44,4.73-1.58,5.33s-5,.29-6.27-1.33c-1.61-2-2.7-3.81-5-6.29-2-2.14-4.16-4.15-5-7.15-.73-2.72-.12-3.9,1.73-4.69,2.55-1.09,6.56,2.46,8.56,3C359.36,393.33,363.73,400.08,364.33,400.31Z" style="fill: rgb(38, 50, 56); transform-origin: 356.131px 399.598px;" id="eltba5txi650r" class="animable"></path><path d="M364.33,398.2V401a6.84,6.84,0,0,1-7.07.19c-.12-.26-.73-4-.73-4Z" style="fill: rgb(255, 168, 167); transform-origin: 360.43px 399.636px;" id="elytjullr136" class="animable"></path><path d="M341.69,416.42s.8,2.43,1.23,4.55c.35,1.69.84,4.52.25,5.79s-2.9,2.09-6.48,2.06c-2.32,0-5.93,1.56-8.41,2.94s-7.86,2-10.56,1.67c-3.19-.37-6.49-2.22-7-3.53s.17-2.69,7.67-5.89c.07,0,10.43-3.4,14.06-7.41Z" style="fill: rgb(38, 50, 56); transform-origin: 327.017px 424.969px;" id="elqa1rzn3fcq" class="animable"></path><path d="M341.69,413.39s0,2.08,0,3.26-1.39,3-5,2.83c-2.55-.09-4.33-.78-4.23-2.88v-3Z" style="fill: rgb(255, 168, 167); transform-origin: 337.073px 416.441px;" id="eluzopqsbci9p" class="animable"></path><path d="M366.14,361.1a75.24,75.24,0,0,0-3.3-14.56s1-12.56,1.48-24.46c.52-12.87,0-29,.22-32.25,0,0-41.51-8.39-42.25,6.48s1.64,52.72,2.13,59.25,1.62,12.31,3,22.9,5.06,35.12,5.06,35.12a9.78,9.78,0,0,0,9.24-.19s2.92-29.73,2.61-37.27a64.4,64.4,0,0,0-2.85-16.45s.78-12.26,1.48-22.92,1.43-15.79,1.59-20.43l.89-.44s.91,18.4,1.4,24.93,1.53,12.79,3.42,24.93c1.64,10.52,6.53,32.79,6.53,32.79,4.74,2.57,7.57-.33,7.57-.33S367.42,370.24,366.14,361.1Z" style="fill: rgb(55, 71, 79); transform-origin: 344.301px 351.06px;" id="el9ofcxjw6cji" class="animable"></path><path d="M344.52,316.32s10.07-5,15.11-9.44c0,0-4.68,6.6-10.82,9.52,0,0-2.19,22.85-2.18,22.4l-1.26-22.52Z" style="fill: rgb(38, 50, 56); transform-origin: 352.075px 322.843px;" id="elgx2wopmivhh" class="animable"></path><polygon points="335.56 231.75 338.01 245.27 350.23 244.38 347.66 229.05 335.56 231.75" style="fill: rgb(255, 168, 167); transform-origin: 342.895px 237.16px;" id="elfgcqp9sg9yv" class="animable"></polygon><path d="M363.12,243.39c-1.21-3.68-5.87-7.68-10.54-6.81a137.19,137.19,0,0,0-20.43,5.1c-4.27,1.53-8.17,5.22-8.52,19.27,0,0-1.43,32.76-1.46,39.1,10.73,4.24,21.89,4.11,28.06,2.76,12.83-2.8,14.38-8.13,14.38-8.13s.17-23.55-.22-33.73C364.07,252.31,364,245.91,363.12,243.39Z" style="fill: rgb(186, 104, 200); transform-origin: 343.408px 270.054px;" id="elt5uzzdlap8" class="animable"></path><path d="M326.14,215.31s-3.1,4.93-2.72,5.4,2.74.85,2.74.85Z" style="fill: rgb(242, 143, 143); transform-origin: 324.774px 218.435px;" id="elmqeb9zlve2m" class="animable"></path><path d="M334.74,201.65c-6.46,1.51-8.27,4.41-8.65,14.73-.4,10.78.78,14.14,2.23,15.56,1,1,6.29,1,8.95.21,3.33-1,10.84-3.85,14.26-9.35,4-6.46,4.93-15.13.39-18.57C345.52,199.39,337.36,201,334.74,201.65Z" style="fill: rgb(255, 168, 167); transform-origin: 340.479px 216.792px;" id="eln761cgtl9" class="animable"></path><path d="M326.16,204.33c1.9,3.25,6,4.8,6,4.8,1.24,1.41.56,6.91,2.73,7.78,0,0,.94-4,4.31-3.58s3.94,4.72,1.87,7.39-4.08,1.7-4.08,1.7.24,5.69,2.83,8.86c0,0,2.89.86,8.14-.38,3.23-.77,7.72-4.93,9.55-9.26,3.88-9.17,4-17.35-1.87-19.67-.73-4.17-4.06-6-7.84-6.75-8.12-1.68-13.36,3.4-19.62,3C324.61,197.92,323.94,200.53,326.16,204.33Z" style="fill: rgb(38, 50, 56); transform-origin: 342.571px 213.224px;" id="elosm63pvnztp" class="animable"></path><path d="M355.78,203.37l3.83-2.38a2.25,2.25,0,1,0-3.83,2.38Z" style="fill: rgb(38, 50, 56); transform-origin: 357.525px 201.648px;" id="elcd9gi7j69o8" class="animable"></path><path d="M332.66,241.9a16.08,16.08,0,0,0-10,5.69c-3.67,4.51-16.41,22.54-16.41,22.54s-20-10-20.94-11.17-.43-3.58-.16-4.89.72-4.25,1-5.07c.51-1.43-1.61-1.05-2.86.29s-1.81,4-2.43,4.42-5.37-5-7.68-7.65-3.38-4.47-4.93-3.39c-1.11.79-.39,2.35,1.26,4.61a29.14,29.14,0,0,1,2.13,3c.2.4-.41.73-.65.94-.45.4-1.24,1.06-1.3,1.68a5.88,5.88,0,0,1-.06,1c-.22.75-1.15,1.1-1.41,1.84-.19.53,0,1.12-.09,1.68-.07.36-.26.68-.33,1a2.52,2.52,0,0,0,.74,1.94c1.62,1.92,3.83,2.66,5.95,3.83,1.77,1,3.59,1.41,5.62,2.31s26,19.3,29.75,17.24S332.3,260,332.3,260C338.66,249.82,332.66,241.9,332.66,241.9Z" style="fill: rgb(255, 168, 167); transform-origin: 301.47px 262.9px;" id="elp2ttk1vj4k" class="animable"></path><path d="M334.41,240.91c-2.61.3-7,.5-11.19,5.31-5,5.62-11.51,14.8-11.51,14.8a14.49,14.49,0,0,0,11.44,10.77s9-9.17,11.45-14.22S337.48,244.32,334.41,240.91Z" style="fill: rgb(186, 104, 200); transform-origin: 324.143px 256.35px;" id="elzcvh7y1nd3" class="animable"></path><g id="ellw90rtiejin"><path d="M334.41,240.91c-2.61.3-7,.5-11.19,5.31-5,5.62-11.51,14.8-11.51,14.8a14.49,14.49,0,0,0,11.44,10.77s9-9.17,11.45-14.22S337.48,244.32,334.41,240.91Z" style="opacity: 0.1; transform-origin: 324.143px 256.35px;" class="animable"></path></g></g></g><defs>     <filter id="active" height="200%">         <feMorphology in="SourceAlpha" result="DILATED" operator="dilate" radius="2"></feMorphology>                <feFlood flood-color="#32DFEC" flood-opacity="1" result="PINK"></feFlood>        <feComposite in="PINK" in2="DILATED" operator="in" result="OUTLINE"></feComposite>        <feMerge>            <feMergeNode in="OUTLINE"></feMergeNode>            <feMergeNode in="SourceGraphic"></feMergeNode>        </feMerge>    </filter>    <filter id="hover" height="200%">        <feMorphology in="SourceAlpha" result="DILATED" operator="dilate" radius="2"></feMorphology>                <feFlood flood-color="#ff0000" flood-opacity="0.5" result="PINK"></feFlood>        <feComposite in="PINK" in2="DILATED" operator="in" result="OUTLINE"></feComposite>        <feMerge>            <feMergeNode in="OUTLINE"></feMergeNode>            <feMergeNode in="SourceGraphic"></feMergeNode>        </feMerge>            <feColorMatrix type="matrix" values="0   0   0   0   0                0   1   0   0   0                0   0   0   0   0                0   0   0   1   0 "></feColorMatrix>    </filter></defs><defs><clipPath id="freepik--clip-path--inject-3"><path d="M281.54,75.9l73.17-42.24c1.31-.76,2.38-.15,2.38,1.37v93.14a5.23,5.23,0,0,1-2.38,4.11l-73.17,42.17c-1.31.76-2.37.14-2.37-1.37V80A5.26,5.26,0,0,1,281.54,75.9Z" style="fill:none"></path></clipPath><clipPath id="freepik--clip-path-2--inject-3"><path d="M107.82,176.2,181,134c1.32-.76,2.38-.14,2.38,1.37v93.15a5.26,5.26,0,0,1-2.38,4.11l-73.17,42.17c-1.31.75-2.37.14-2.37-1.38V180.31A5.24,5.24,0,0,1,107.82,176.2Z" style="fill:none"></path></clipPath><clipPath id="freepik--clip-path-3--inject-3"><path d="M201.76,147.65l73.17-42.25c1.31-.76,2.38-.14,2.38,1.37v93.15a5.26,5.26,0,0,1-2.38,4.11L201.76,246.2c-1.31.75-2.38.14-2.38-1.37V151.76A5.26,5.26,0,0,1,201.76,147.65Z" style="fill:none"></path></clipPath></defs></svg>